<svg width="20" height="20" viewBox="0 0 20 20" fill="none" xmlns="http://www.w3.org/2000/svg">
<path d="M10 20C15.5228 20 20 15.5228 20 10C20 4.47715 15.5228 0 10 0C4.47715 0 0 4.47715 0 10C0 15.5228 4.47715 20 10 20Z" fill="#039BE5"/>
<path d="M4.57581 9.78301L14.2175 6.06552C14.665 5.90385 15.0558 6.17468 14.9108 6.85135L14.9116 6.85052L13.27 14.5847C13.1483 15.133 12.8225 15.2663 12.3666 15.008L9.86664 13.1655L8.66081 14.3272C8.52747 14.4605 8.41497 14.573 8.15664 14.573L8.33414 12.0288L12.9675 7.84302C13.1691 7.66552 12.9225 7.56552 12.6566 7.74218L6.93081 11.3472L4.46247 10.5772C3.92664 10.4072 3.91497 10.0413 4.57581 9.78301V9.78301Z" fill="white"/>
</svg>
